<?xml version="1.0" encoding="UTF-8"?>
<svg width="14px" height="10px" viewBox="0 0 14 10" version="1.1" xmlns="http://www.w3.org/2000/svg" xmlns:xlink="http://www.w3.org/1999/xlink">
    <!-- Generator: Sketch 55 (78076) - https://sketchapp.com -->
    <title>_Forklift</title>
    <desc>Created with Sketch.</desc>
    <defs>
        <polygon id="path-1" points="0.06 0.395 9.336 0.395 9.336 8.844 0.06 8.844"></polygon>
    </defs>
    <g id="Page-1" stroke="none" stroke-width="1" fill="none" fill-rule="evenodd">
        <g id="_Forklift">
            <g id="Group-3">
                <mask id="mask-2" fill="white">
                    <use xlink:href="#path-1"></use>
                </mask>
                <g id="Clip-2"></g>
                <path d="M7.48,5.876 C7.48,5.876 6.906,0.395 4.746,0.395 L1.277,0.395 L1.277,5.438 L0.395,5.438 C-0.492,5.438 0.395,8.571 0.395,8.571 L0.941,8.571 C0.98,7.794 1.625,7.173 2.414,7.173 C3.203,7.173 3.844,7.794 3.883,8.571 L5.676,8.571 C5.676,8.563 5.676,8.559 5.676,8.551 C5.676,7.688 6.379,6.985 7.242,6.985 C8.105,6.985 8.809,7.688 8.809,8.551 C8.809,8.653 8.797,8.751 8.781,8.844 L9.336,8.844 L8.41,5.946 C7.566,6.423 7.48,5.876 7.48,5.876 Z M4.688,6.051 L3.871,4.622 L2.098,4.622 L2.098,1.216 L4.602,1.216 C5.332,1.216 5.734,2.231 5.945,3.087 C6.082,3.633 6.496,5.618 6.531,6.051 L4.688,6.051 Z" id="Fill-1" fill="#000000" mask="url(#mask-2)"></path>
            </g>
            <path d="M7.25,7.165 C6.5,7.165 5.891,7.774 5.891,8.528 C5.891,9.278 6.5,9.887 7.25,9.887 C8,9.887 8.609,9.278 8.609,8.528 C8.609,7.774 8,7.165 7.25,7.165 Z M7.25,9.317 C6.816,9.317 6.461,8.962 6.461,8.528 C6.461,8.094 6.816,7.739 7.25,7.739 C7.684,7.739 8.035,8.094 8.035,8.528 C8.035,8.962 7.684,9.317 7.25,9.317 Z" id="Fill-4" fill="#000000"></path>
            <g id="Group-8" transform="translate(1.000000, 0.000000)" fill="#000000">
                <path d="M1.375,7.415 C0.66,7.415 0.082,7.997 0.082,8.708 C0.082,9.423 0.66,10.001 1.375,10.001 C2.09,10.001 2.668,9.419 2.668,8.708 C2.668,7.997 2.09,7.415 1.375,7.415 Z M1.375,9.458 C0.961,9.458 0.629,9.122 0.629,8.708 C0.629,8.294 0.961,7.958 1.375,7.958 C1.789,7.958 2.125,8.294 2.125,8.708 C2.125,9.122 1.785,9.458 1.375,9.458 Z" id="Fill-5"></path>
                <path d="M12.262,7.231 C12.211,7.079 12.043,6.993 11.891,7.048 L9.055,7.981 L6.605,0.618 C6.555,0.466 6.391,0.383 6.234,0.434 C6.082,0.485 5.996,0.649 6.051,0.805 L8.594,8.442 C8.637,8.563 8.746,8.641 8.871,8.641 C8.902,8.641 8.934,8.637 8.965,8.63 L12.074,7.602 C12.227,7.551 12.312,7.387 12.262,7.231 Z" id="Fill-7"></path>
            </g>
        </g>
    </g>
</svg>