<?xml version="1.0" encoding="UTF-8"?>
<svg width="13px" height="10px" viewBox="0 0 13 10" version="1.1" xmlns="http://www.w3.org/2000/svg" xmlns:xlink="http://www.w3.org/1999/xlink">
    <!-- Generator: Sketch 55 (78076) - https://sketchapp.com -->
    <title>Orange</title>
    <desc>Created with Sketch.</desc>
    <g id="Orange" stroke="none" stroke-width="1" fill="none" fill-rule="evenodd">
        <path d="M7.32397151,5.70580887 C7.32397151,5.70580887 7.40818636,6.27524464 8.23466695,5.77867999 L9.14144541,8.79554445 L8.59796588,8.79554445 C8.61363375,8.69872996 8.62538466,8.59671039 8.62538466,8.49052675 C8.62538466,7.59212992 7.93599801,6.86029565 7.09091182,6.86029565 C6.24582563,6.86029565 5.55741823,7.59212992 5.55741823,8.49052675 C5.55741823,8.49885488 5.55741823,8.50301895 5.55741823,8.51134707 L3.8016366,8.51134707 C3.76344615,7.70247762 3.13575177,7.05600666 2.36312952,7.05600666 C1.59050727,7.05600666 0.958895918,7.70247762 0.920705465,8.51134707 L0.386039115,8.51134707 C0.386039115,8.51134707 -0.482548893,5.24984385 0.386039115,5.24984385 L1.24973091,5.24984385 L1.24973091,3.46389584e-14 L4.64672279,3.46389584e-14 C6.76188638,3.46389584e-14 7.32397151,5.70580887 7.32397151,5.70580887 Z M4.58992674,5.88798667 L6.39467048,5.88798667 C6.36039699,5.43722673 5.95499064,3.37080991 5.82083443,2.80241516 C5.61421429,1.91130543 5.22055884,0.854674162 4.50571189,0.854674162 L2.05368892,0.854674162 L2.05368892,4.40037477 L3.7898857,4.40037477 L4.58992674,5.88798667 Z M7.09874576,7.04767853 C7.83317756,7.04767853 8.42953618,7.6816573 8.42953618,8.46658339 C8.42953618,9.24734541 7.83317756,9.88132417 7.09874576,9.88132417 C6.36431396,9.88132417 5.76795534,9.24734541 5.76795534,8.46658339 C5.76795534,7.6816573 6.36431396,7.04767853 7.09874576,7.04767853 Z M7.09874576,9.28794503 C7.52373696,9.28794503 7.86745105,8.91838434 7.86745105,8.46658339 C7.86745105,8.01478243 7.52373696,7.64522174 7.09874576,7.64522174 C6.67375456,7.64522174 6.32612351,8.01478243 6.32612351,8.46658339 C6.32612351,8.91838434 6.67375456,9.28794503 7.09874576,9.28794503 Z M2.32493907,7.30793254 C3.02509738,7.30793254 3.59109949,7.91380387 3.59109949,8.65396627 C3.59109949,9.39412867 3.02509738,10 2.32493907,10 C1.62478075,10 1.05877864,9.39829273 1.05877864,8.65396627 C1.05877864,7.91380387 1.62478075,7.30793254 2.32493907,7.30793254 Z M2.32493907,9.43472829 C2.72642845,9.43472829 3.05937087,9.08494691 3.05937087,8.65396627 C3.05937087,8.22298563 2.73034542,7.87320425 2.32493907,7.87320425 C1.91953271,7.87320425 1.59442424,8.22298563 1.59442424,8.65396627 C1.59442424,9.08494691 1.91953271,9.43472829 2.32493907,9.43472829 Z M12.9859511,7.11638559 C13.0349132,7.27878409 12.9516776,7.44951072 12.8018535,7.50260254 L9.75738888,8.57276702 C9.72703236,8.58005413 9.69569661,8.5842182 9.66534009,8.5842182 C9.54293479,8.5842182 9.43619737,8.50301895 9.39408995,8.37705601 L6.90387653,0.426816573 C6.85001819,0.264418072 6.93423304,0.0936914428 7.08307788,0.0405996252 C7.23681894,-0.0124921924 7.39741469,0.0739121382 7.44637681,0.232146575 L9.84552069,7.89714762 L12.6226521,6.92587966 C12.771497,6.86862378 12.9360097,6.95815116 12.9859511,7.11638559 Z" id="Forklift_Orange" fill="#EB5A0A" fill-rule="nonzero"></path>
    </g>
</svg>